HIERARCHY
ROOT hip
{
  OFFSET -88.1986 79.0262 263.975
  CHANNELS 6 Xposition Yposition Zposition Zrotation Xrotation Yrotation
  JOINT abdomen
  {
    OFFSET 0 20.6881 -0.73152
    CHANNELS 3 Zrotation Xrotation Yrotation
    JOINT chest
    {
      OFFSET 0 11.7043 -0.48768
      CHANNELS 3 Zrotation Xrotation Yrotation
      JOINT neck
      {
        OFFSET 0 22.1894 -2.19456
        CHANNELS 3 Zrotation Xrotation Yrotation
        JOINT head
        {
          OFFSET -0.24384 7.07133 1.2192
          CHANNELS 3 Zrotation Xrotation Yrotation
          JOINT leftEye
          {
            OFFSET 4.14528 8.04674 8.04672
            CHANNELS 3 Zrotation Xrotation Yrotation
            End Site
            {
              OFFSET 1 0 0
            }
          }
          JOINT rightEye
          {
            OFFSET -3.6576 8.04674 8.04672
            CHANNELS 3 Zrotation Xrotation Yrotation
            End Site
            {
              OFFSET 1 0 0
            }
          }
        }
      }
      JOINT rCollar
      {
        OFFSET -2.68224 19.2634 -4.8768
        CHANNELS 3 Zrotation Xrotation Yrotation
        JOINT rShldr
        {
          OFFSET -8.77824 -1.95073 1.46304
          CHANNELS 3 Zrotation Xrotation Yrotation
          JOINT rForeArm
          {
            OFFSET -28.1742 -1.7115 0.48768
            CHANNELS 3 Zrotation Xrotation Yrotation
            JOINT rHand
            {
              OFFSET -22.5879 0.773209 7.07136
              CHANNELS 3 Zrotation Xrotation Yrotation
              JOINT rThumb1
              {
                OFFSET -1.2192 -0.487915 3.41376
                CHANNELS 3 Zrotation Xrotation Yrotation
                JOINT rThumb2
                {
                  OFFSET -3.37035 -0.52449 3.41376
                  CHANNELS 3 Zrotation Xrotation Yrotation
                  End Site
                  {
                    OFFSET -1.78271 -1.18214 1.43049
                  }
                }
              }
              JOINT rIndex1
              {
                OFFSET -7.75947 0.938293 5.60832
                CHANNELS 3 Zrotation Xrotation Yrotation
                JOINT rIndex2
                {
                  OFFSET -2.54057 -0.884171 1.56538
                  CHANNELS 3 Zrotation Xrotation Yrotation
                  End Site
                  {
                    OFFSET -1.62519 -0.234802 1.16502
                  }
                }
              }
              JOINT rMid1
              {
                OFFSET -8.24714 1.18213 3.41376
                CHANNELS 3 Zrotation Xrotation Yrotation
                JOINT rMid2
                {
                  OFFSET -3.10165 -0.590103 1.0647
                  CHANNELS 3 Zrotation Xrotation Yrotation
                  End Site
                  {
                    OFFSET -2.48547 -0.328903 0.83742
                  }
                }
              }
              JOINT rRing1
              {
                OFFSET -8.82822 0.546677 1.51678
                CHANNELS 3 Zrotation Xrotation Yrotation
                JOINT rRing2
                {
                  OFFSET -2.60934 -0.819778 -0.0198488
                  CHANNELS 3 Zrotation Xrotation Yrotation
                  End Site
                  {
                    OFFSET -2.33842 -0.294052 0.168128
                  }
                }
              }
              JOINT rPinky1
              {
                OFFSET -8.27202 -0.0477905 -0.4584
                CHANNELS 3 Zrotation Xrotation Yrotation
                JOINT rPinky2
                {
                  OFFSET -1.82734 -0.647385 -0.700984
                  CHANNELS 3 Zrotation Xrotation Yrotation
                  End Site
                  {
                    OFFSET -1.69225 -0.51767 -0.607171
                  }
                }
              }
            }
          }
        }
      }
      JOINT lCollar
      {
        OFFSET 2.68224 19.2634 -4.8768
        CHANNELS 3 Zrotation Xrotation Yrotation
        JOINT lShldr
        {
          OFFSET 8.77824 -1.95073 1.46304
          CHANNELS 3 Zrotation Xrotation Yrotation
          JOINT lForeArm
          {
            OFFSET 28.1742 -1.7115 0.48768
            CHANNELS 3 Zrotation Xrotation Yrotation
            JOINT lHand
            {
              OFFSET 22.5879 0.773209 7.07136
              CHANNELS 3 Zrotation Xrotation Yrotation
              JOINT lThumb1
              {
                OFFSET 1.2192 -0.487915 3.41376
                CHANNELS 3 Zrotation Xrotation Yrotation
                JOINT lThumb2
                {
                  OFFSET 3.37035 -0.52449 3.41376
                  CHANNELS 3 Zrotation Xrotation Yrotation
                  End Site
                  {
                    OFFSET 1.78271 -1.18214 1.43049
                  }
                }
              }
              JOINT lIndex1
              {
                OFFSET 7.75947 0.938293 5.60832
                CHANNELS 3 Zrotation Xrotation Yrotation
                JOINT lIndex2
                {
                  OFFSET 2.54057 -0.884171 1.56538
                  CHANNELS 3 Zrotation Xrotation Yrotation
                  End Site
                  {
                    OFFSET 1.62519 -0.234802 1.16502
                  }
                }
              }
              JOINT lMid1
              {
                OFFSET 8.24714 1.18213 3.41376
                CHANNELS 3 Zrotation Xrotation Yrotation
                JOINT lMid2
                {
                  OFFSET 3.10165 -0.590103 1.0647
                  CHANNELS 3 Zrotation Xrotation Yrotation
                  End Site
                  {
                    OFFSET 2.48547 -0.328903 0.83742
                  }
                }
              }
              JOINT lRing1
              {
                OFFSET 8.82822 0.546677 1.51678
                CHANNELS 3 Zrotation Xrotation Yrotation
                JOINT lRing2
                {
                  OFFSET 2.60934 -0.819778 -0.0198488
                  CHANNELS 3 Zrotation Xrotation Yrotation
                  End Site
                  {
                    OFFSET 2.33842 -0.294052 0.168128
                  }
                }
              }
              JOINT lPinky1
              {
                OFFSET 8.27202 -0.0477905 -0.4584
                CHANNELS 3 Zrotation Xrotation Yrotation
                JOINT lPinky2
                {
                  OFFSET 1.82734 -0.647385 -0.700984
                  CHANNELS 3 Zrotation Xrotation Yrotation
                  End Site
                  {
                    OFFSET 1.69225 -0.51767 -0.607171
                  }
                }
              }
            }
          }
        }
      }
    }
  }
  JOINT rButtock
  {
    OFFSET -8.77824 4.35084 1.2192
    CHANNELS 3 Zrotation Xrotation Yrotation
    JOINT rThigh
    {
      OFFSET 0 -1.70687 -2.19456
      CHANNELS 3 Zrotation Xrotation Yrotation
      JOINT rShin
      {
        OFFSET 0 -36.8199 0.73152
        CHANNELS 3 Zrotation Xrotation Yrotation
        JOINT rFoot
        {
          OFFSET 0.73152 -45.1104 -5.12064
          CHANNELS 3 Zrotation Xrotation Yrotation
          End Site
          {
            OFFSET -1.1221 -3.69964 12.103
          }
        }
      }
    }
  }
  JOINT lButtock
  {
    OFFSET 8.77824 4.35084 1.2192
    CHANNELS 3 Zrotation Xrotation Yrotation
    JOINT lThigh
    {
      OFFSET 0 -1.70687 -2.19456
      CHANNELS 3 Zrotation Xrotation Yrotation
      JOINT lShin
      {
        OFFSET 0 -36.8199 0.73152
        CHANNELS 3 Zrotation Xrotation Yrotation
        JOINT lFoot
        {
          OFFSET -0.73152 -45.1104 -5.12064
          CHANNELS 3 Zrotation Xrotation Yrotation
          End Site
          {
            OFFSET 1.1221 -3.69964 12.103
          }
        }
      }
    }
  }
}
MOTION
Frames:	4
Frame Time:	0.00833333
30.3069 73.103 67.1761 13.1916 16.144 -48.3487 0.850928 52.6923 -9.86416 -2.5823 -2.12998 -2.61793 -4.56627 19.474 4.53561 21.3619 -64.6952 23.192 -0 0 0 -0 0 0 -8.74565e-013 1.23858e-012 5.12386e-013 62.6111 49.4245 4.5218 -28.3395 -33.3115 72.5507 -0.0475418 6.23221 0.879346 6.50906e-009 -7.51095e-010 -7.59914e-009 1.12048e-008 -1.28565e-009 -1.31566e-008 6.50906e-009 -7.51094e-010 -7.59915e-009 7.73091 5.47488 0.417314 6.50906e-009 -7.51095e-010 -7.59914e-009 2.90554 0.965183 0.102902 6.50906e-009 -7.51094e-010 -7.59914e-009 10.2786 0.731801 0.0259123 6.50905e-009 -7.5109e-010 -7.59913e-009 2.22167 -0.733487 -0.20892 -8.74679e-013 1.23853e-012 5.12126e-013 -5.80869 13.1061 -67.998 28.4223 -34.8836 -75.1546 2.79263 -41.9927 7.26805 -7.70323e-010 5.09256e-010 -3.48821e-009 -1.20592e-009 9.81043e-010 -6.04608e-009 -7.70329e-010 5.09254e-010 -3.48821e-009 -7.73091 5.47488 -0.417314 -7.70321e-010 5.09256e-010 -3.4882e-009 -2.90554 0.965183 -0.102902 -7.7033e-010 5.09256e-010 -3.48821e-009 -10.2786 0.731801 -0.0259123 -7.70318e-010 5.09257e-010 -3.48822e-009 -2.22167 -0.733487 0.20892 -2.03217e-016 0 -3.88251e-019 45.0949 -87.5109 45.0551 -176.105 66.5882 176.111 -1.7277 -7.90123 -4.5584 2.03217e-016 0 3.88251e-019 17.185 -63.6799 33.6173 0.814282 55.4679 -1.07931 0.0826312 -12.8854 -2.01554 
30.073 72.5459 67.5895 12.965 15.8055 -48.0487 1.3052 53.3593 -10.9986 -1.87513 -2.31627 -2.83093 -5.63302 19.5775 4.80052 22.8122 -64.7577 24.7047 -0 0 0 -0 0 0 -1.33256e-012 1.6869e-012 7.84752e-013 60.491 50.1515 5.83209 -28.3947 -34.181 73.9963 -0.0427502 5.8908 0.830857 8.2052e-009 -4.91342e-010 -9.27696e-009 1.41223e-008 -8.3842e-010 -1.60618e-008 8.2052e-009 -4.9134e-010 -9.27696e-009 7.73091 5.47488 0.417314 8.2052e-009 -4.91341e-010 -9.27696e-009 2.90554 0.965183 0.102902 8.20521e-009 -4.9134e-010 -9.27696e-009 10.2786 0.731801 0.0259123 8.20519e-009 -4.91336e-010 -9.27695e-009 2.22167 -0.733487 -0.20892 -1.33268e-012 1.68687e-012 7.84504e-013 -6.77457 11.3451 -67.0746 28.4214 -34.8406 -75.0816 2.87728 -42.48 7.39401 9.55697e-011 5.35556e-010 -4.28075e-009 3.12396e-010 1.06096e-009 -7.38529e-009 9.55633e-011 5.35554e-010 -4.28074e-009 -7.73091 5.47488 -0.417314 9.55717e-011 5.35556e-010 -4.28074e-009 -2.90554 0.965183 -0.102902 9.55622e-011 5.35556e-010 -4.28074e-009 -10.2786 0.731801 -0.0259123 9.55749e-011 5.35558e-010 -4.28075e-009 -2.22167 -0.733487 0.20892 -2.03217e-016 0 -3.88251e-019 89.7363 -88.2185 89.7505 -176.126 66.4345 176.148 -1.57606 -7.92945 -4.05693 2.03217e-016 0 3.88251e-019 17.118 -63.8866 33.7424 0.87661 56.9448 -1.22295 0.1175 -13.7053 -1.86655 
29.8652 71.9974 67.9894 12.7554 15.4955 -47.7094 1.69321 54.0242 -11.6988 -1.52995 -2.42914 -2.94515 -6.07159 19.5902 4.87589 23.5581 -64.8698 25.3794 -0 0 0 -0 0 0 -1.47967e-012 1.59423e-012 8.26141e-013 59.1105 50.3674 6.87567 -28.4284 -35.0365 75.4069 -0.0392294 5.63398 0.794408 6.86623e-009 3.22257e-010 -7.73247e-009 1.18128e-008 5.61978e-010 -1.33851e-008 6.86624e-009 3.2226e-010 -7.73247e-009 7.73091 5.47488 0.417314 6.86623e-009 3.22259e-010 -7.73247e-009 2.90554 0.965183 0.102902 6.86624e-009 3.22259e-010 -7.73247e-009 10.2786 0.731801 0.0259123 6.86623e-009 3.22263e-010 -7.73246e-009 2.22167 -0.733487 -0.20892 -1.4798e-012 1.5942e-012 8.25927e-013 -7.16604 9.60571 -66.716 28.4192 -34.7609 -74.9485 2.95176 -42.8941 7.50322 1.33889e-009 4.57515e-010 -3.86361e-009 2.43809e-009 9.34132e-010 -6.62039e-009 1.33888e-009 4.57513e-010 -3.8636e-009 -7.73091 5.47488 -0.417314 1.33889e-009 4.57515e-010 -3.86361e-009 -2.90554 0.965183 -0.102902 1.33888e-009 4.57516e-010 -3.86361e-009 -10.2786 0.731801 -0.0259123 1.3389e-009 4.57517e-010 -3.86362e-009 -2.22167 -0.733487 0.20892 -2.03217e-016 0 -3.88251e-019 131.555 -87.5535 131.633 -176.117 66.5685 176.157 -1.44295 -7.97938 -3.60683 2.03217e-016 0 3.88251e-019 16.9613 -64.181 33.7023 0.94442 58.4237 -1.37086 0.189842 -14.4657 -1.62533 
29.6795 71.396 68.3779 12.5546 15.21 -47.3376 2.05364 54.6825 -12.1538 -1.39387 -2.49772 -3.00211 -6.14363 19.5499 4.83953 23.8923 -65.0082 25.5606 -0 0 0 -0 0 0 -1.46617e-012 1.17217e-012 7.35193e-013 58.1703 50.2839 7.76497 -28.438 -35.8929 76.8102 -0.0362813 5.42001 0.76405 3.69122e-009 1.54703e-009 -4.17948e-009 6.34134e-009 2.66993e-009 -7.2294e-009 3.69123e-009 1.54704e-009 -4.17949e-009 7.73091 5.47488 0.417314 3.69122e-009 1.54703e-009 -4.17948e-009 2.90554 0.965183 0.102902 3.69123e-009 1.54703e-009 -4.17949e-009 10.2786 0.731801 0.0259123 3.69121e-009 1.54704e-009 -4.17949e-009 2.22167 -0.733487 -0.20892 -1.46631e-012 1.17213e-012 7.35031e-013 -7.25438 7.91541 -66.6905 28.4154 -34.6477 -74.7617 3.01584 -43.2429 7.59646 2.908e-009 3.17891e-010 -2.74237e-009 5.0996e-009 6.85882e-010 -4.62686e-009 2.90799e-009 3.1789e-010 -2.74236e-009 -7.73091 5.47488 -0.417314 2.908e-009 3.17891e-010 -2.74238e-009 -2.90554 0.965183 -0.102902 2.90799e-009 3.17892e-010 -2.74237e-009 -10.2786 0.731801 -0.0259123 2.908e-009 3.17893e-010 -2.74237e-009 -2.22167 -0.733487 0.20892 -2.03217e-016 0 -3.88251e-019 148.699 -86.3195 148.842 -176.077 66.9856 176.138 -1.32314 -8.05337 -3.19721 2.03217e-016 0 3.88251e-019 16.729 -64.538 33.5235 1.01852 59.902 -1.52501 0.297172 -15.1811 -1.30667 
